HIERARCHY
ROOT Hips
{
    OFFSET 0.000000 0.000000 0.000000
    CHANNELS 6 Xposition Yposition Zposition Zrotation Xrotation Yrotation
    JOINT Spine
    {
        OFFSET -0.000000 7.236184 0.000000
        CHANNELS 3 Zrotation Xrotation Yrotation
        JOINT Spine1
        {
            OFFSET -0.000000 20.420147 0.000000
            CHANNELS 3 Zrotation Xrotation Yrotation
            JOINT Neck
            {
                OFFSET -0.000000 20.336288 1.848754
                CHANNELS 3 Zrotation Xrotation Yrotation
                JOINT Head
                {
                    OFFSET -0.000000 12.354461 -1.764923
                    CHANNELS 3 Zrotation Xrotation Yrotation
                    End Site
                    {
                        OFFSET -0.000000 22.061537 0.000000
                    }
                }
            }
            JOINT LeftShoulder
            {
                OFFSET 3.573296 18.396038 -0.314103
                CHANNELS 3 Zrotation Xrotation Yrotation
                JOINT LeftArm
                {
                    OFFSET 10.880760 0.000000 0.000000
                    CHANNELS 3 Zrotation Xrotation Yrotation
                    JOINT LeftForeArm
                    {
                        OFFSET 27.185530 0.000000 0.000000
                        CHANNELS 3 Zrotation Xrotation Yrotation
                        JOINT LeftHand
                        {
                            OFFSET 27.825975 0.000000 0.000000
                            CHANNELS 3 Zrotation Xrotation Yrotation
                            End Site
                            {
                                OFFSET 13.236923 0.000000 0.000000
                            }
                        }
                    }
                }
            }
            JOINT RightShoulder
            {
                OFFSET -3.474926 18.396038 -0.314103
                CHANNELS 3 Zrotation Xrotation Yrotation
                JOINT RightArm
                {
                    OFFSET -10.880760 0.000000 0.000000
                    CHANNELS 3 Zrotation Xrotation Yrotation
                    JOINT RightForeArm
                    {
                        OFFSET -27.185530 0.000000 0.000000
                        CHANNELS 3 Zrotation Xrotation Yrotation
                        JOINT RightHand
                        {
                            OFFSET -27.825975 0.000000 0.000000
                            CHANNELS 3 Zrotation Xrotation Yrotation
                            End Site
                            {
                                OFFSET -13.236923 0.000000 0.000000
                            }
                        }
                    }
                }
            }
        }
    }
    JOINT LeftUpLeg
    {
        OFFSET 8.824615 0.000000 0.000000
        CHANNELS 3 Zrotation Xrotation Yrotation
        JOINT LeftLeg
        {
            OFFSET -0.000000 -35.111282 0.000000
            CHANNELS 3 Zrotation Xrotation Yrotation
            JOINT LeftFoot
            {
                OFFSET -0.000000 -42.324711 0.000000
                CHANNELS 3 Zrotation Xrotation Yrotation
                JOINT LeftToeBase
                {
                    OFFSET -0.000000 -5.735999 13.236923
                    CHANNELS 3 Zrotation Xrotation Yrotation
                    End Site
                    {
                        OFFSET -0.000000 0.000000 3.529846
                    }
                }
            }
        }
    }
    JOINT RightUpLeg
    {
        OFFSET -8.824615 0.000000 0.000000
        CHANNELS 3 Zrotation Xrotation Yrotation
        JOINT RightLeg
        {
            OFFSET -0.000000 -35.111282 0.000000
            CHANNELS 3 Zrotation Xrotation Yrotation
            JOINT RightFoot
            {
                OFFSET -0.000000 -42.324711 0.000000
                CHANNELS 3 Zrotation Xrotation Yrotation
                JOINT RightToeBase
                {
                    OFFSET -0.000000 -5.735999 13.236923
                    CHANNELS 3 Zrotation Xrotation Yrotation
                    End Site
                    {
                        OFFSET -0.000000 0.000000 3.529846
                    }
                }
            }
        }
    }
}
MOTION
Frames:    9
Frame Time:    0.008333
-2.224512    82.136215    94.231796    1.748029    -5.119461    -173.104004    0.760149    -14.522725    0.913191    -6.035055    6.655802    1.167567    7.244246    3.271636    -7.323713    9.187279    3.477424    -7.463013    1.806388    17.723608    -3.681879    -45.601418    44.167656    -36.881687    -3.738997    -2.932311    -15.840487    15.608519    -3.037280    3.029023    -1.063832    9.154879    -4.044871    37.446056    -26.379354    14.946119    -58.003345    -38.869453    63.871582    -37.768524    2.551880    -10.219564    5.299230    -2.798654    -3.089146    -2.922784    6.595039    -0.794237    0.501645    -10.259362    -8.876253    -0.788854    2.014859    0.871304    -1.296942    1.252845    -2.437353    12.017194    8.511058    -13.070007    0.000000    0.000000    0.000000    0.000000    0.000000    0.000000    
-2.222991    82.135735    94.226227    1.746186    -5.120286    -173.087265    0.770056    -14.519110    0.912509    -6.048992    6.656061    1.166497    7.250257    3.266120    -7.319795    9.186837    3.474267    -7.459818    1.814334    17.725697    -3.683274    -45.607784    44.160191    -36.880203    -3.740543    -2.935788    -15.835652    15.583534    -3.043465    3.014658    -1.065539    9.142655    -4.042309    37.290089    -26.402552    15.044011    -57.998238    -38.769951    63.719948    -37.700146    2.543941    -10.243546    5.299614    -2.793024    -3.108681    -2.927221    6.581100    -0.777792    0.497754    -10.253044    -8.889680    -0.787364    2.015144    0.869658    -1.297438    1.259669    -2.435687    12.021340    8.505741    -13.078373    0.000000    0.000000    0.000000    0.000000    0.000000    0.000000    
-2.221468    82.135269    94.220695    1.744328    -5.121240    -173.070724    0.779664    -14.515576    0.911725    -6.062441    6.656175    1.165303    7.256018    3.260486    -7.315839    9.186232    3.471795    -7.456618    1.821913    17.727997    -3.684351    -45.613861    44.152672    -36.878922    -3.742296    -2.939704    -15.830757    15.556733    -3.050237    2.999510    -1.067828    9.130468    -4.039690    37.134319    -26.426010    15.143023    -57.992138    -38.669666    63.567757    -37.632542    2.535440    -10.266139    5.300022    -2.787500    -3.128088    -2.931732    6.567213    -0.761416    0.494168    -10.246793    -8.902989    -0.786001    2.015325    0.868152    -1.297994    1.266399    -2.434132    12.025473    8.500339    -13.086385    0.000000    0.000000    0.000000    0.000000    0.000000    0.000000    
-2.219962    82.134865    94.215355    1.742480    -5.122454    -173.054855    0.788621    -14.512049    0.910730    -6.074827    6.655873    1.163953    7.260591    3.254580    -7.312013    9.186391    3.470843    -7.453465    1.828421    17.730396    -3.684933    -45.619629    44.145409    -36.877525    -3.744126    -2.944433    -15.825744    15.527260    -3.058078    2.983202    -1.071111    9.116958    -4.036453    36.980175    -26.448589    15.240744    -57.984798    -38.569679    63.417007    -37.567066    2.526237    -10.286757    5.300316    -2.782360    -3.146784    -2.935995    6.553780    -0.745298    0.490918    -10.240829    -8.916243    -0.784886    2.015899    0.866920    -1.298517    1.272599    -2.433043    12.029251    8.495200    -13.093953    0.000000    0.000000    0.000000    0.000000    0.000000    0.000000    
-2.218461    82.134499    94.210152    1.740592    -5.124060    -173.039551    0.796802    -14.508464    0.909510    -6.086018    6.654888    1.162236    7.264305    3.248196    -7.308127    9.186486    3.471879    -7.450353    1.833460    17.733114    -3.684725    -45.624474    44.138340    -36.876156    -3.746294    -2.950411    -15.820629    15.493401    -3.067562    2.965049    -1.075533    9.103492    -4.033226    36.827496    -26.471016    15.340185    -57.975597    -38.468742    63.266235    -37.503830    2.515974    -10.304354    5.300554    -2.777602    -3.164964    -2.940228    6.540505    -0.729541    0.488311    -10.234981    -8.929175    -0.784012    2.017172    0.865953    -1.299070    1.278200    -2.432586    12.032657    8.490343    -13.100982    0.000000    0.000000    0.000000    0.000000    0.000000    0.000000    
-2.216943    82.134171    94.205048    1.738659    -5.126129    -173.024780    0.804259    -14.504846    0.907949    -6.096133    6.653128    1.160223    7.266883    3.241435    -7.304199    9.187073    3.475243    -7.447207    1.837587    17.736389    -3.683574    -45.628811    44.131302    -36.875210    -3.748992    -2.957876    -15.815173    15.454254    -3.079017    2.944479    -1.081918    9.088619    -4.029264    36.674400    -26.492954    15.440984    -57.963524    -38.365112    63.113789    -37.442608    2.504255    -10.318747    5.300692    -2.773237    -3.182645    -2.944282    6.527455    -0.713898    0.486134    -10.229382    -8.942126    -0.783288    2.018573    0.865151    -1.299700    1.283298    -2.432655    12.035790    8.485474    -13.107197    0.000000    0.000000    0.000000    0.000000    0.000000    0.000000    
-2.215440    82.133888    94.200172    1.736671    -5.128702    -173.010803    0.810791    -14.501138    0.906017    -6.105110    6.650289    1.157890    7.268431    3.234285    -7.300231    9.187803    3.481399    -7.444133    1.840183    17.739950    -3.681574    -45.632595    44.124493    -36.873829    -3.752114    -2.966729    -15.809518    15.409993    -3.092336    2.921833    -1.090014    9.073320    -4.024921    36.524765    -26.514183    15.542039    -57.948364    -38.260227    62.962208    -37.385265    2.491141    -10.328279    5.300680    -2.769486    -3.199567    -2.948141    6.514848    -0.698636    0.484480    -10.224047    -8.954740    -0.782699    2.020696    0.864497    -1.300384    1.287549    -2.433646    12.038404    8.481027    -13.112748    0.000000    0.000000    0.000000    0.000000    0.000000    0.000000    
-2.213956    82.133652    94.195480    1.734592    -5.131753    -172.997604    0.816482    -14.497362    0.903783    -6.113332    6.646423    1.155211    7.269044    3.226930    -7.296221    9.189023    3.490234    -7.441064    1.841662    17.743864    -3.678685    -45.635979    44.117928    -36.872227    -3.755520    -2.976765    -15.803602    15.361571    -3.107226    2.897350    -1.099893    9.056970    -4.019636    36.378246    -26.534306    15.642254    -57.929653    -38.153404    62.810585    -37.332199    2.476131    -10.332317    5.300434    -2.766273    -3.215635    -2.951695    6.502649    -0.683792    0.483095    -10.218930    -8.967056    -0.782201    2.022863    0.863944    -1.301207    1.291107    -2.435416    12.040632    8.476859    -13.117414    0.000000    0.000000    0.000000    0.000000    0.000000    0.000000    
-2.212451    82.133438    94.190865    1.732330    -5.135386    -172.984818    0.821534    -14.493400    0.901147    -6.121397    6.641261    1.152172    7.268790    3.219478    -7.292059    9.191038    3.501892    -7.437891    1.842214    17.748249    -3.674860    -45.638920    44.111378    -36.870239    -3.759386    -2.987733    -15.797538    15.309185    -3.123360    2.871286    -1.111964    9.039230    -4.013109    36.231613    -26.553993    15.744178    -57.906284    -38.040424    62.653957    -37.283112    2.458701    -10.329329    5.299975    -2.763521    -3.231370    -2.955112    6.490550    -0.669027    0.482085    -10.213928    -8.979165    -0.781629    2.025129    0.863308    -1.302208    1.294025    -2.438252    12.042456    8.472886    -13.121381    0.000000    0.000000    0.000000    0.000000    0.000000    0.000000    
